%TF.GenerationSoftware,KiCad,Pcbnew,5.1.9+dfsg1-1+deb11u1*%
%TF.CreationDate,2026-02-24T17:38:07-08:00*%
%TF.ProjectId,ch32_8,63683332-5f38-42e6-9b69-6361645f7063,rev?*%
%TF.SameCoordinates,Original*%
%TF.FileFunction,Paste,Bot*%
%TF.FilePolarity,Positive*%
%FSLAX46Y46*%
G04 Gerber Fmt 4.6, Leading zero omitted, Abs format (unit mm)*
G04 Created by KiCad (PCBNEW 5.1.9+dfsg1-1+deb11u1) date 2026-02-24 17:38:07*
%MOMM*%
%LPD*%
G01*
G04 APERTURE LIST*
G04 APERTURE END LIST*
%TO.C,R1*%
G36*
G01*
X127831000Y-96970001D02*
X127831000Y-96069999D01*
G75*
G02*
X128080999Y-95820000I249999J0D01*
G01*
X128731001Y-95820000D01*
G75*
G02*
X128981000Y-96069999I0J-249999D01*
G01*
X128981000Y-96970001D01*
G75*
G02*
X128731001Y-97220000I-249999J0D01*
G01*
X128080999Y-97220000D01*
G75*
G02*
X127831000Y-96970001I0J249999D01*
G01*
G37*
G36*
G01*
X125781000Y-96970001D02*
X125781000Y-96069999D01*
G75*
G02*
X126030999Y-95820000I249999J0D01*
G01*
X126681001Y-95820000D01*
G75*
G02*
X126931000Y-96069999I0J-249999D01*
G01*
X126931000Y-96970001D01*
G75*
G02*
X126681001Y-97220000I-249999J0D01*
G01*
X126030999Y-97220000D01*
G75*
G02*
X125781000Y-96970001I0J249999D01*
G01*
G37*
%TD*%
%TO.C,D1*%
G36*
G01*
X126940000Y-93529999D02*
X126940000Y-94430001D01*
G75*
G02*
X126690001Y-94680000I-249999J0D01*
G01*
X126039999Y-94680000D01*
G75*
G02*
X125790000Y-94430001I0J249999D01*
G01*
X125790000Y-93529999D01*
G75*
G02*
X126039999Y-93280000I249999J0D01*
G01*
X126690001Y-93280000D01*
G75*
G02*
X126940000Y-93529999I0J-249999D01*
G01*
G37*
G36*
G01*
X128990000Y-93529999D02*
X128990000Y-94430001D01*
G75*
G02*
X128740001Y-94680000I-249999J0D01*
G01*
X128089999Y-94680000D01*
G75*
G02*
X127840000Y-94430001I0J249999D01*
G01*
X127840000Y-93529999D01*
G75*
G02*
X128089999Y-93280000I249999J0D01*
G01*
X128740001Y-93280000D01*
G75*
G02*
X128990000Y-93529999I0J-249999D01*
G01*
G37*
%TD*%
%TO.C,C1*%
G36*
G01*
X129915499Y-97850000D02*
X130815501Y-97850000D01*
G75*
G02*
X131065500Y-98099999I0J-249999D01*
G01*
X131065500Y-98750001D01*
G75*
G02*
X130815501Y-99000000I-249999J0D01*
G01*
X129915499Y-99000000D01*
G75*
G02*
X129665500Y-98750001I0J249999D01*
G01*
X129665500Y-98099999D01*
G75*
G02*
X129915499Y-97850000I249999J0D01*
G01*
G37*
G36*
G01*
X129915499Y-95800000D02*
X130815501Y-95800000D01*
G75*
G02*
X131065500Y-96049999I0J-249999D01*
G01*
X131065500Y-96700001D01*
G75*
G02*
X130815501Y-96950000I-249999J0D01*
G01*
X129915499Y-96950000D01*
G75*
G02*
X129665500Y-96700001I0J249999D01*
G01*
X129665500Y-96049999D01*
G75*
G02*
X129915499Y-95800000I249999J0D01*
G01*
G37*
%TD*%
M02*
