%TF.GenerationSoftware,KiCad,Pcbnew,5.1.9+dfsg1-1+deb11u1*%
%TF.CreationDate,2026-02-24T17:38:07-08:00*%
%TF.ProjectId,ch32_8,63683332-5f38-42e6-9b69-6361645f7063,rev?*%
%TF.SameCoordinates,Original*%
%TF.FileFunction,Legend,Bot*%
%TF.FilePolarity,Positive*%
%FSLAX46Y46*%
G04 Gerber Fmt 4.6, Leading zero omitted, Abs format (unit mm)*
G04 Created by KiCad (PCBNEW 5.1.9+dfsg1-1+deb11u1) date 2026-02-24 17:38:07*
%MOMM*%
%LPD*%
G01*
G04 APERTURE LIST*
%ADD10C,0.150000*%
%ADD11C,0.120000*%
G04 APERTURE END LIST*
D10*
X144968261Y-96099880D02*
X144396833Y-96099880D01*
X144682547Y-97099880D02*
X144682547Y-96099880D01*
X144063500Y-97099880D02*
X144063500Y-96099880D01*
X143634928Y-97099880D02*
X143634928Y-96576071D01*
X143682547Y-96480833D01*
X143777785Y-96433214D01*
X143920642Y-96433214D01*
X144015880Y-96480833D01*
X144063500Y-96528452D01*
X142777785Y-97052261D02*
X142873023Y-97099880D01*
X143063500Y-97099880D01*
X143158738Y-97052261D01*
X143206357Y-96957023D01*
X143206357Y-96576071D01*
X143158738Y-96480833D01*
X143063500Y-96433214D01*
X142873023Y-96433214D01*
X142777785Y-96480833D01*
X142730166Y-96576071D01*
X142730166Y-96671309D01*
X143206357Y-96766547D01*
X142301595Y-97099880D02*
X142301595Y-96433214D01*
X142301595Y-96623690D02*
X142253976Y-96528452D01*
X142206357Y-96480833D01*
X142111119Y-96433214D01*
X142015880Y-96433214D01*
X141301595Y-97052261D02*
X141396833Y-97099880D01*
X141587309Y-97099880D01*
X141682547Y-97052261D01*
X141730166Y-96957023D01*
X141730166Y-96576071D01*
X141682547Y-96480833D01*
X141587309Y-96433214D01*
X141396833Y-96433214D01*
X141301595Y-96480833D01*
X141253976Y-96576071D01*
X141253976Y-96671309D01*
X141730166Y-96766547D01*
X140063500Y-97099880D02*
X140063500Y-96433214D01*
X140063500Y-96099880D02*
X140111119Y-96147500D01*
X140063500Y-96195119D01*
X140015880Y-96147500D01*
X140063500Y-96099880D01*
X140063500Y-96195119D01*
X139634928Y-97052261D02*
X139539690Y-97099880D01*
X139349214Y-97099880D01*
X139253976Y-97052261D01*
X139206357Y-96957023D01*
X139206357Y-96909404D01*
X139253976Y-96814166D01*
X139349214Y-96766547D01*
X139492071Y-96766547D01*
X139587309Y-96718928D01*
X139634928Y-96623690D01*
X139634928Y-96576071D01*
X139587309Y-96480833D01*
X139492071Y-96433214D01*
X139349214Y-96433214D01*
X139253976Y-96480833D01*
X144825404Y-98083214D02*
X144825404Y-98749880D01*
X144825404Y-98178452D02*
X144777785Y-98130833D01*
X144682547Y-98083214D01*
X144539690Y-98083214D01*
X144444452Y-98130833D01*
X144396833Y-98226071D01*
X144396833Y-98749880D01*
X143777785Y-98749880D02*
X143873023Y-98702261D01*
X143920642Y-98654642D01*
X143968261Y-98559404D01*
X143968261Y-98273690D01*
X143920642Y-98178452D01*
X143873023Y-98130833D01*
X143777785Y-98083214D01*
X143634928Y-98083214D01*
X143539690Y-98130833D01*
X143492071Y-98178452D01*
X143444452Y-98273690D01*
X143444452Y-98559404D01*
X143492071Y-98654642D01*
X143539690Y-98702261D01*
X143634928Y-98749880D01*
X143777785Y-98749880D01*
X142206357Y-97749880D02*
X142301595Y-97940357D01*
X141777785Y-98749880D02*
X141777785Y-98083214D01*
X141777785Y-97749880D02*
X141825404Y-97797500D01*
X141777785Y-97845119D01*
X141730166Y-97797500D01*
X141777785Y-97749880D01*
X141777785Y-97845119D01*
X141253976Y-97749880D02*
X141349214Y-97940357D01*
X140063500Y-98749880D02*
X140063500Y-98083214D01*
X140063500Y-97749880D02*
X140111119Y-97797500D01*
X140063500Y-97845119D01*
X140015880Y-97797500D01*
X140063500Y-97749880D01*
X140063500Y-97845119D01*
X139587309Y-98083214D02*
X139587309Y-98749880D01*
X139587309Y-98178452D02*
X139539690Y-98130833D01*
X139444452Y-98083214D01*
X139301595Y-98083214D01*
X139206357Y-98130833D01*
X139158738Y-98226071D01*
X139158738Y-98749880D01*
X137873023Y-97749880D02*
X137968261Y-97940357D01*
X137587309Y-98083214D02*
X137206357Y-98083214D01*
X137444452Y-97749880D02*
X137444452Y-98607023D01*
X137396833Y-98702261D01*
X137301595Y-98749880D01*
X137206357Y-98749880D01*
X136492071Y-98702261D02*
X136587309Y-98749880D01*
X136777785Y-98749880D01*
X136873023Y-98702261D01*
X136920642Y-98607023D01*
X136920642Y-98226071D01*
X136873023Y-98130833D01*
X136777785Y-98083214D01*
X136587309Y-98083214D01*
X136492071Y-98130833D01*
X136444452Y-98226071D01*
X136444452Y-98321309D01*
X136920642Y-98416547D01*
X135587309Y-98749880D02*
X135587309Y-98226071D01*
X135634928Y-98130833D01*
X135730166Y-98083214D01*
X135920642Y-98083214D01*
X136015880Y-98130833D01*
X135587309Y-98702261D02*
X135682547Y-98749880D01*
X135920642Y-98749880D01*
X136015880Y-98702261D01*
X136063500Y-98607023D01*
X136063500Y-98511785D01*
X136015880Y-98416547D01*
X135920642Y-98368928D01*
X135682547Y-98368928D01*
X135587309Y-98321309D01*
X135111119Y-98749880D02*
X135111119Y-98083214D01*
X135111119Y-98178452D02*
X135063500Y-98130833D01*
X134968261Y-98083214D01*
X134825404Y-98083214D01*
X134730166Y-98130833D01*
X134682547Y-98226071D01*
X134682547Y-98749880D01*
X134682547Y-98226071D02*
X134634928Y-98130833D01*
X134539690Y-98083214D01*
X134396833Y-98083214D01*
X134301595Y-98130833D01*
X134253976Y-98226071D01*
X134253976Y-98749880D01*
X133730166Y-97749880D02*
X133825404Y-97940357D01*
D11*
%TO.C,R1*%
X127119748Y-97230000D02*
X127642252Y-97230000D01*
X127119748Y-95810000D02*
X127642252Y-95810000D01*
%TO.C,D1*%
X126390000Y-93020000D02*
X129250000Y-93020000D01*
X129250000Y-93020000D02*
X129250000Y-94940000D01*
X129250000Y-94940000D02*
X126390000Y-94940000D01*
%TO.C,C1*%
X129655500Y-97138748D02*
X129655500Y-97661252D01*
X131075500Y-97138748D02*
X131075500Y-97661252D01*
%TD*%
M02*
